<svg width="30" height="30" viewBox="0 0 30 30" fill="none" xmlns="http://www.w3.org/2000/svg">
<path opacity="0.4" d="M14.0625 0C14.6875 0 15.3125 0 15.9375 0C16.4391 0.0648438 16.943 0.111719 17.4406 0.196875C20.2891 0.68125 22.807 1.87109 24.9578 3.8C27.543 6.11797 29.1602 8.98984 29.7695 12.4156C29.8664 12.9609 29.9242 13.5133 30 14.0625V15.9375C29.9836 16.0125 29.957 16.0875 29.9516 16.1633C29.775 18.4773 29.1109 20.6437 27.9031 22.6234C25.5227 26.5242 22.0836 28.9219 17.5828 29.7703C17.0391 29.8727 16.4859 29.925 15.9375 30H14.0625C13.6969 29.9547 13.3297 29.9156 12.9648 29.8633C9.97969 29.4359 7.34219 28.2398 5.0875 26.2375C2.48281 23.9234 0.85625 21.0469 0.233594 17.6133C0.132812 17.0586 0.0765625 16.4961 0 15.9375C0 15.3125 0 14.6875 0 14.0625C0.0453125 13.6961 0.0828125 13.3289 0.135937 12.9633C0.608594 9.69375 1.98672 6.86406 4.30156 4.50781C6.54688 2.22109 9.25469 0.786719 12.4164 0.230469C12.9617 0.134375 13.5133 0.0757813 14.0625 0ZM12.6758 15.5258V24.207H16.2961V15.5148H18.7312C18.8359 14.4867 18.9383 13.4844 19.0445 12.4492H16.2898C16.2898 11.8867 16.2898 11.3523 16.2898 10.8172C16.2898 10.0313 16.5125 9.81094 17.3023 9.81016C17.8563 9.81016 18.4094 9.81016 18.9805 9.81016V6.85625C18.9359 6.84453 18.8992 6.82578 18.8625 6.82578C17.9258 6.82266 16.9859 6.775 16.0516 6.82969C14.1477 6.94062 13.0078 7.92969 12.7469 9.72891C12.6344 10.5055 12.6898 11.3063 12.668 12.0961C12.6648 12.2086 12.6586 12.3203 12.6516 12.468H10.9734V15.5258H12.675H12.6758Z" fill="white"/>
</svg>
